<mxfile host="app.diagrams.net" modified="2020-10-17T08:51:17.457Z" agent="5.0 (Windows)" etag="6qkVEPQsTHMn4JWNMFdb" version="13.8.0" type="github">
  <diagram id="h2YiutnrLx_wMpK8OsgN" name="Page-1">
    <mxGraphModel dx="868" dy="479" grid="1" gridSize="10" guides="1" tooltips="1" connect="1" arrows="1" fold="1" page="1" pageScale="1" pageWidth="850" pageHeight="1100" math="0" shadow="0">
      <root>
        <mxCell id="0" />
        <mxCell id="1" parent="0" />
        <mxCell id="ym1vz_D0KRKAU_0O5CMz-1" value="&lt;font style=&quot;font-size: 24px&quot;&gt;Question Answer Model&lt;/font&gt;" style="rounded=0;whiteSpace=wrap;html=1;" vertex="1" parent="1">
          <mxGeometry x="320" y="150" width="210" height="100" as="geometry" />
        </mxCell>
        <mxCell id="ym1vz_D0KRKAU_0O5CMz-2" value="System" style="shape=umlActor;verticalLabelPosition=bottom;verticalAlign=top;html=1;outlineConnect=0;" vertex="1" parent="1">
          <mxGeometry x="200" y="170" width="30" height="60" as="geometry" />
        </mxCell>
        <mxCell id="ym1vz_D0KRKAU_0O5CMz-3" value="User" style="shape=umlActor;verticalLabelPosition=bottom;verticalAlign=top;html=1;outlineConnect=0;" vertex="1" parent="1">
          <mxGeometry x="620" y="170" width="30" height="60" as="geometry" />
        </mxCell>
        <mxCell id="ym1vz_D0KRKAU_0O5CMz-4" value="" style="endArrow=classic;html=1;" edge="1" parent="1">
          <mxGeometry width="50" height="50" relative="1" as="geometry">
            <mxPoint x="240" y="200" as="sourcePoint" />
            <mxPoint x="310" y="200" as="targetPoint" />
          </mxGeometry>
        </mxCell>
        <mxCell id="ym1vz_D0KRKAU_0O5CMz-5" value="" style="endArrow=classic;html=1;" edge="1" parent="1">
          <mxGeometry width="50" height="50" relative="1" as="geometry">
            <mxPoint x="610" y="199.5" as="sourcePoint" />
            <mxPoint x="540" y="199.5" as="targetPoint" />
          </mxGeometry>
        </mxCell>
      </root>
    </mxGraphModel>
  </diagram>
</mxfile>
